<svg xmlns="http://www.w3.org/2000/svg" width="15" height="15" viewBox="0 0 15 15">
  <path id="_7787531_earth_globe_world_flag_country_icon" data-name="7787531_earth_globe_world_flag_country_icon" d="M22.5,15a7.494,7.494,0,1,0,5.305,2.195A7.5,7.5,0,0,0,22.5,15Zm0,1.765a5.792,5.792,0,0,1,2.868.75c-.132.176-.265.353-.353.485-.265.353-.4.574-.574.662-.176.132-.309.132-.794.176a1.7,1.7,0,0,0-.838.221,2.289,2.289,0,0,0-.971.971c-.132.265-.176.574-.309.882a1.731,1.731,0,0,1-.353.618c-.265.265-.265-.221-.309-.441a5.25,5.25,0,0,0-.75-1.588,1.522,1.522,0,0,0-.353-.4,1.4,1.4,0,0,0-1.191-.044,4.686,4.686,0,0,0-.838.176A5.906,5.906,0,0,1,22.5,16.765Zm0,11.471A5.724,5.724,0,0,1,16.765,22.5a5.187,5.187,0,0,1,.132-1.191l2.029-.485a3.369,3.369,0,0,1,.4,1.235,1.35,1.35,0,0,0,.132.662,1.374,1.374,0,0,0,.618.706,1.746,1.746,0,0,0,1.147.221,1.53,1.53,0,0,0,.838-.441,7.067,7.067,0,0,0,.971-1.147,2.322,2.322,0,0,0,.353-1.015.51.51,0,0,1,.529-.529,2.471,2.471,0,0,0,1.544-.485,4.235,4.235,0,0,0,.971-1.059,3.087,3.087,0,0,1,.353-.441,5.75,5.75,0,0,1,1.5,3.882,5.647,5.647,0,0,1-.4,2.118A7,7,0,0,1,27,24.221a5.171,5.171,0,0,0-1.412-.4,14.06,14.06,0,0,0-2.338.265c-.838.088-.794,1.1-.618,1.721a3.77,3.77,0,0,0,.574,1.324,3.393,3.393,0,0,0,.794.794,3.518,3.518,0,0,1-1.5.309Zm3.662-1.368a1.062,1.062,0,0,1-.882-.132,1.778,1.778,0,0,1-.618-.574,2.62,2.62,0,0,1-.176-.353l1.015-.132c.221.088.4.132.618.221s.618.132.794.309C27,26.206,26.25,26.823,26.162,26.868Z" transform="translate(-15 -15)" fill="#fc4c1e"/>
</svg>
