<svg xmlns="http://www.w3.org/2000/svg" width="83.021" height="74.042" viewBox="0 0 83.021 74.042">
  <g id="icon" transform="matrix(0.695, -0.719, 0.719, 0.695, 0, 36.533)">
    <g id="Group_52" data-name="Group 52" transform="translate(0 0)">
      <path id="Path_90" data-name="Path 90" d="M50.787,52.118C49.769,27.321,40,0,1.957,0a1.957,1.957,0,0,0,0,3.914c34.739,0,43.859,25.051,44.9,48.008L48.928,54Z" fill="#fff"/>
    </g>
    <g id="Group_54" data-name="Group 54" transform="translate(39.137 46.966)">
      <g id="Group_53" data-name="Group 53" transform="translate(0 0)">
        <path id="Path_91" data-name="Path 91" d="M19.008.572a1.985,1.985,0,0,0-2.779,0l-4.58,4.58L9.79,7.031,7.716,4.956,3.352.572A1.965,1.965,0,1,0,.572,3.352L8.4,11.18a1.933,1.933,0,0,0,.626.411.726.726,0,0,0,.274.078,1.668,1.668,0,0,0,.979,0,.726.726,0,0,0,.274-.078,1.933,1.933,0,0,0,.626-.411l7.828-7.828A1.973,1.973,0,0,0,19.008.572Z" fill="#fff"/>
      </g>
    </g>
  </g>
</svg>
