<svg xmlns="http://www.w3.org/2000/svg" width="83.021" height="74.042" viewBox="0 0 83.021 74.042">
  <g id="icon" transform="translate(42.258 -4.689) rotate(46)">
    <g id="Group_52" data-name="Group 52" transform="translate(1 5.714)">
      <path id="Path_90" data-name="Path 90" d="M51.787,5.289C50.769,30.085,41,57.407,2.957,57.407a1.957,1.957,0,0,1,0-3.914c34.739,0,43.859-25.051,44.9-48.008L49.928,3.41Z" transform="translate(-1 -3.41)" fill="#fff"/>
    </g>
    <g id="Group_54" data-name="Group 54" transform="translate(40.137 1.002)">
      <g id="Group_53" data-name="Group 53">
        <path id="Path_91" data-name="Path 91" d="M40.006,12.173a1.985,1.985,0,0,1-2.779,0l-4.58-4.58L30.788,5.714,28.713,7.789l-4.364,4.384A1.965,1.965,0,0,1,21.57,9.394L29.4,1.565a1.933,1.933,0,0,1,.626-.411.726.726,0,0,1,.274-.078,1.668,1.668,0,0,1,.979,0,.726.726,0,0,1,.274.078,1.933,1.933,0,0,1,.626.411l7.828,7.828A1.973,1.973,0,0,1,40.006,12.173Z" transform="translate(-20.998 -1.003)" fill="#fff"/>
      </g>
    </g>
  </g>
</svg>
