<svg xmlns="http://www.w3.org/2000/svg" width="28.941" height="28.864" viewBox="0 0 28.941 28.864">
  <g id="Layer_2" transform="translate(-13.5 -14.146)">
    <g id="Group_22" data-name="Group 22" transform="translate(13.5 14.146)">
      <g id="Group_21" data-name="Group 21" transform="translate(0 0)">
        <g id="Group_2" data-name="Group 2" transform="translate(7.581 2.189)">
          <path id="Path_13" data-name="Path 13" d="M143.208,55.6h-2.24a.417.417,0,0,1-.418-.418v-3.93a.417.417,0,0,1,.418-.418h2.24a.417.417,0,0,1,.418.418v3.931A.417.417,0,0,1,143.208,55.6Zm-1.822-.835h1.4V51.665h-1.4Z" transform="translate(-140.55 -50.83)" fill="#fc4c1e"/>
        </g>
        <g id="Group_3" data-name="Group 3" transform="translate(7.581 11.635)">
          <path id="Path_14" data-name="Path 14" d="M143.208,226.359h-2.24a.417.417,0,0,1-.418-.418V209.548a.417.417,0,0,1,.418-.418h2.24a.418.418,0,0,1,0,.835h-1.822v15.559h1.4v-13.58a.418.418,0,1,1,.835,0v14A.417.417,0,0,1,143.208,226.359Z" transform="translate(-140.55 -209.13)" fill="#fc4c1e"/>
        </g>
        <g id="Group_4" data-name="Group 4" transform="translate(0 6.12)">
          <path id="Path_15" data-name="Path 15" d="M18.884,123.05H13.918a.417.417,0,0,1-.418-.418v-5.515a.417.417,0,0,1,.418-.418h4.966a.417.417,0,0,1,.418.418v5.516A.417.417,0,0,1,18.884,123.05Zm-4.548-.835h4.131v-4.68H14.335Z" transform="translate(-13.5 -116.7)" fill="#fc4c1e"/>
        </g>
        <g id="Group_5" data-name="Group 5" transform="translate(4.966 7.983)">
          <path id="Path_16" data-name="Path 16" d="M99,150.563H97.138a.417.417,0,0,1-.418-.418v-1.8a.417.417,0,0,1,.418-.418H99a.417.417,0,0,1,.418.418v1.8A.418.418,0,0,1,99,150.563Zm-1.446-.835h1.029v-.963H97.555Z" transform="translate(-96.72 -147.93)" fill="#fc4c1e"/>
        </g>
        <g id="Group_6" data-name="Group 6" transform="translate(10.573 7.983)">
          <path id="Path_17" data-name="Path 17" d="M200.767,150.563H191.1a.417.417,0,0,1-.418-.418v-1.8a.417.417,0,0,1,.418-.418h8.334a.418.418,0,1,1,0,.835h-7.916v.963h8.834v-1.38a.418.418,0,0,1,.835,0v1.8A.418.418,0,0,1,200.767,150.563Z" transform="translate(-190.68 -147.93)" fill="#fc4c1e"/>
        </g>
        <g id="Group_7" data-name="Group 7" transform="translate(22.845 7.983)">
          <path id="Path_18" data-name="Path 18" d="M399.407,150.563h-2.659a.417.417,0,0,1-.418-.418v-1.8a.417.417,0,0,1,.418-.418h2.659a.417.417,0,0,1,.418.418v1.8A.418.418,0,0,1,399.407,150.563Zm-2.241-.835h1.824v-.963h-1.824Z" transform="translate(-396.33 -147.93)" fill="#fc4c1e"/>
        </g>
        <g id="Group_8" data-name="Group 8" transform="translate(20.242 7.358)">
          <path id="Path_19" data-name="Path 19" d="M355.74,143.333h-2.6a.417.417,0,0,1-.418-.418v-5.038a.417.417,0,0,1,.418-.418h2.6a.417.417,0,0,1,.418.418v5.038A.417.417,0,0,1,355.74,143.333Zm-2.185-.835h1.767v-4.2h-1.767Z" transform="translate(-352.72 -137.46)" fill="#fc4c1e"/>
        </g>
        <g id="Group_9" data-name="Group 9" transform="translate(11.317 1.094)">
          <path id="Path_20" data-name="Path 20" d="M218.747,39.58a.416.416,0,0,1-.3-.122l-6.142-6.142h-8.742a.418.418,0,0,1,0-.835h8.915a.418.418,0,0,1,.3.122l6.264,6.264a.418.418,0,0,1-.3.713Z" transform="translate(-203.15 -32.48)" fill="#fc4c1e"/>
        </g>
        <g id="Group_10" data-name="Group 10" transform="translate(2.483 1.095)">
          <path id="Path_21" data-name="Path 21" d="M55.527,38.35a.418.418,0,0,1-.339-.661l3.6-5.025a.418.418,0,0,1,.679.487l-3.6,5.024A.418.418,0,0,1,55.527,38.35Z" transform="translate(-55.11 -32.49)" fill="#fc4c1e"/>
        </g>
        <g id="Group_11" data-name="Group 11" transform="translate(14.981 21.132)">
          <path id="Path_22" data-name="Path 22" d="M278.093,371.32H264.968a.417.417,0,0,1-.418-.418v-2.214a.417.417,0,0,1,.418-.418h13.125a.417.417,0,0,1,.418.418V370.9A.418.418,0,0,1,278.093,371.32Zm-12.707-.835h12.29v-1.379h-12.29Z" transform="translate(-264.55 -368.27)" fill="#fc4c1e"/>
        </g>
        <g id="Group_12" data-name="Group 12" transform="translate(21.544 17.378)">
          <path id="Path_23" data-name="Path 23" d="M374.948,309.949a.417.417,0,0,1-.418-.418v-3.754a.418.418,0,1,1,.835,0v3.754A.418.418,0,0,1,374.948,309.949Z" transform="translate(-374.53 -305.36)" fill="#fc4c1e"/>
        </g>
        <g id="Group_13" data-name="Group 13" transform="translate(21.544 12.396)">
          <path id="Path_24" data-name="Path 24" d="M374.948,224.351a.417.417,0,0,1-.418-.418V222.3a.418.418,0,1,1,.835,0v1.636A.417.417,0,0,1,374.948,224.351Z" transform="translate(-374.53 -221.88)" fill="#fc4c1e"/>
        </g>
        <g id="Group_14" data-name="Group 14" transform="translate(18.316 17.378)">
          <path id="Path_25" data-name="Path 25" d="M320.85,309.951a.417.417,0,0,1-.357-.633l2.262-3.754a.418.418,0,0,1,.715.431l-2.262,3.754A.417.417,0,0,1,320.85,309.951Z" transform="translate(-320.432 -305.362)" fill="#fc4c1e"/>
        </g>
        <g id="Group_15" data-name="Group 15" transform="translate(22.509 17.377)">
          <path id="Path_26" data-name="Path 26" d="M393.392,309.942a.417.417,0,0,1-.358-.2l-2.262-3.754a.418.418,0,0,1,.715-.431l2.262,3.754a.418.418,0,0,1-.357.634Z" transform="translate(-390.712 -305.352)" fill="#fc4c1e"/>
        </g>
        <g id="Group_16" data-name="Group 16" transform="translate(6.086 0)">
          <path id="Path_27" data-name="Path 27" d="M121.139,17.174h-5.231a.417.417,0,0,1-.418-.418V14.568a.417.417,0,0,1,.418-.418H117.1a.418.418,0,0,1,0,.835h-.77v1.353h4.4V14.985h-1.342a.418.418,0,0,1,0-.835h1.76a.417.417,0,0,1,.418.418v2.189A.418.418,0,0,1,121.139,17.174Z" transform="translate(-115.49 -14.15)" fill="#fc4c1e"/>
        </g>
        <g id="Group_17" data-name="Group 17" transform="translate(8.409)">
          <path id="Path_28" data-name="Path 28" d="M154.838,14.982a.42.42,0,0,1-.3-.122.406.406,0,0,1-.052-.064.424.424,0,0,1-.039-.072.442.442,0,0,1-.024-.078.418.418,0,0,1,.491-.491.43.43,0,0,1,.15.062.413.413,0,0,1,.063.052.414.414,0,0,1,.115.377.394.394,0,0,1-.024.078.463.463,0,0,1-.038.072.445.445,0,0,1-.052.064.377.377,0,0,1-.063.051.4.4,0,0,1-.072.039.438.438,0,0,1-.078.024A.416.416,0,0,1,154.838,14.982Z" transform="translate(-154.42 -14.146)" fill="#fc4c1e"/>
        </g>
        <g id="Group_18" data-name="Group 18" transform="translate(6.83 6.12)">
          <path id="Path_29" data-name="Path 29" d="M132.12,123.051h-3.743a.417.417,0,0,1-.418-.418v-5.516a.417.417,0,0,1,.418-.418h3.743a.417.417,0,0,1,.418.418v5.516A.418.418,0,0,1,132.12,123.051Zm-3.325-.835H131.7v-4.68H128.8Z" transform="translate(-127.96 -116.7)" fill="#fc4c1e"/>
        </g>
        <g id="Group_19" data-name="Group 19" transform="translate(25.504 7.359)">
          <path id="Path_30" data-name="Path 30" d="M443.91,141.352h-2.6a.417.417,0,0,1-.418-.418v-3.047a.417.417,0,0,1,.418-.418h2.6a.417.417,0,0,1,.418.418v3.047A.418.418,0,0,1,443.91,141.352Zm-2.185-.835h1.767v-2.211h-1.767Z" transform="translate(-440.89 -137.47)" fill="#fc4c1e"/>
        </g>
        <g id="Group_20" data-name="Group 20" transform="translate(19.612 14.032)">
          <path id="Path_31" data-name="Path 31" d="M345.477,253.471h-1.932a.417.417,0,0,1-.362-.209l-.965-1.673a.418.418,0,0,1,0-.418l.965-1.673a.417.417,0,0,1,.362-.209h1.932a.417.417,0,0,1,.362.209l.966,1.673a.418.418,0,0,1,0,.418l-.966,1.673A.417.417,0,0,1,345.477,253.471Zm-1.691-.835h1.449l.725-1.255-.725-1.255h-1.449l-.724,1.255Z" transform="translate(-342.163 -249.29)" fill="#fc4c1e"/>
        </g>
      </g>
    </g>
  </g>
</svg>
