<svg xmlns="http://www.w3.org/2000/svg" width="17" height="17" viewBox="0 0 17 17">
  <g id="_9025948_phone_outgoing_icon" data-name="9025948_phone_outgoing_icon" transform="translate(-2.668 -2.006)">
    <rect id="Rectangle_5" data-name="Rectangle 5" width="17" height="17" transform="translate(2.668 2.006)" fill="none"/>
    <path id="Path_3" data-name="Path 3" d="M44.441,40.157a7.072,7.072,0,0,0,3.3,3.291.677.677,0,0,0,.668-.051l2.115-1.413a.668.668,0,0,1,.643-.059l3.959,1.7a.668.668,0,0,1,.406.7A4.06,4.06,0,0,1,51.5,47.872,11.5,11.5,0,0,1,40,36.367a4.06,4.06,0,0,1,3.543-4.026.668.668,0,0,1,.7.406l1.7,3.967a.677.677,0,0,1-.051.634L44.483,39.5A.677.677,0,0,0,44.441,40.157Z" transform="translate(-36.564 -29.634)" fill="none" stroke="#fff" stroke-linecap="round" stroke-linejoin="round" stroke-width="1"/>
    <path id="Path_4" data-name="Path 4" d="M168,48h3.384v3.384" transform="translate(-153.736 -43.973)" fill="none" stroke="#fff" stroke-linecap="round" stroke-linejoin="round" stroke-width="1"/>
    <line id="Line_2" data-name="Line 2" y1="3" x2="3" transform="translate(13.668 5.006)" fill="none" stroke="#fff" stroke-linecap="round" stroke-linejoin="round" stroke-width="1"/>
  </g>
</svg>
