<svg xmlns="http://www.w3.org/2000/svg" width="22.65" height="22.838" viewBox="0 0 22.65 22.838">
  <g id="_1737368_comment_description_outline_problem_task_icon" data-name="1737368_comment_description_outline_problem_task_icon" transform="translate(-60.297 -58.67)">
    <path id="Path_560" data-name="Path 560" d="M63.948,77.956h1v.2A3.514,3.514,0,0,0,68.6,81.508H79.3a3.515,3.515,0,0,0,3.652-3.351V65.573A3.515,3.515,0,0,0,79.3,62.222h-1v-.2a3.514,3.514,0,0,0-3.651-3.351h-10.7A3.514,3.514,0,0,0,60.3,62.021V74.605A3.515,3.515,0,0,0,63.948,77.956ZM79.3,63.319a2.361,2.361,0,0,1,2.456,2.254V78.157A2.362,2.362,0,0,1,79.3,80.411H68.6a2.361,2.361,0,0,1-2.456-2.254V65.573A2.361,2.361,0,0,1,68.6,63.319H79.3Zm-17.8-1.3a2.361,2.361,0,0,1,2.456-2.254h10.7A2.361,2.361,0,0,1,77.1,62.021v.2H68.6a3.515,3.515,0,0,0-3.651,3.351V76.859h-1a2.362,2.362,0,0,1-2.456-2.254Z" transform="translate(0 0)" fill="#fff"/>
    <path id="Path_561" data-name="Path 561" d="M188.973,198.035a.475.475,0,0,0,0,.95h9.5a.475.475,0,1,0,0-.95Z" transform="translate(-120.782 -131.3)" fill="#fff"/>
    <path id="Path_562" data-name="Path 562" d="M222.655,254.291a.476.476,0,0,0,.476.475h8.905a.475.475,0,1,0,0-.951h-8.905A.476.476,0,0,0,222.655,254.291Z" transform="translate(-152.963 -183.852)" fill="#fff"/>
    <path id="Path_563" data-name="Path 563" d="M197.795,310.08a.475.475,0,0,0-.475-.475h-8.346a.475.475,0,0,0,0,.951h8.346A.476.476,0,0,0,197.795,310.08Z" transform="translate(-120.782 -236.414)" fill="#fff"/>
    <path id="Path_564" data-name="Path 564" d="M249.7,365.395h-7.821a.475.475,0,0,0,0,.95H249.7a.475.475,0,1,0,0-.95Z" transform="translate(-170.623 -288.976)" fill="#fff"/>
  </g>
</svg>
