<svg xmlns="http://www.w3.org/2000/svg" width="29.594" height="28.736" viewBox="0 0 29.594 28.736">
  <g id="Layer_2" transform="translate(-1.88 -70.06)">
    <g id="Group_39" data-name="Group 39" transform="translate(1.88 70.06)">
      <g id="Group_38" data-name="Group 38" transform="translate(0 0)">
        <g id="Group_23" data-name="Group 23" transform="translate(0.001 11.045)">
          <path id="Path_33" data-name="Path 33" d="M55.919,221.257H46.383a.531.531,0,0,1-.493-.562v-1.081a.5.5,0,1,1,.986,0v.519h8.55v-4.4h-8.55v.56a.5.5,0,1,1-.986,0v-1.123a.531.531,0,0,1,.493-.562h9.536a.531.531,0,0,1,.493.562v5.523A.531.531,0,0,1,55.919,221.257Z" transform="translate(-45.89 -214.61)" fill="#fff"/>
        </g>
        <g id="Group_24" data-name="Group 24" transform="translate(0.001 5.523)">
          <path id="Path_34" data-name="Path 34" d="M51.15,152.486H46.383a.531.531,0,0,1-.493-.562V146.4a.531.531,0,0,1,.493-.562H51.15a.531.531,0,0,1,.493.562v5.522A.531.531,0,0,1,51.15,152.486Zm-4.275-1.124h3.782v-4.4H46.876Z" transform="translate(-45.89 -145.84)" fill="#fff"/>
        </g>
        <g id="Group_28" data-name="Group 28" transform="translate(0.001 16.568)">
          <g id="Group_25" data-name="Group 25">
            <path id="Path_35" data-name="Path 35" d="M51.15,290.036H46.383a.531.531,0,0,1-.493-.562v-5.522a.531.531,0,0,1,.493-.562H51.15a.531.531,0,0,1,.493.562v5.522A.531.531,0,0,1,51.15,290.036Zm-4.275-1.124h3.782v-4.4H46.876Z" transform="translate(-45.89 -283.39)" fill="#fff"/>
          </g>
          <g id="Group_26" data-name="Group 26" transform="translate(14.303)">
            <path id="Path_36" data-name="Path 36" d="M259.029,290.036h-9.536a.531.531,0,0,1-.493-.562v-5.522a.531.531,0,0,1,.493-.562h9.536a.531.531,0,0,1,.493.562v5.522A.531.531,0,0,1,259.029,290.036Zm-9.043-1.124h8.55v-4.4h-8.55Z" transform="translate(-249 -283.39)" fill="#fff"/>
          </g>
          <g id="Group_27" data-name="Group 27" transform="translate(4.768)">
            <path id="Path_37" data-name="Path 37" d="M123.619,290.036h-9.536a.531.531,0,0,1-.493-.562v-5.522a.531.531,0,0,1,.493-.562h9.536a.531.531,0,0,1,.493.562v5.522A.531.531,0,0,1,123.619,290.036Zm-9.043-1.124h8.55v-4.4h-8.55Z" transform="translate(-113.59 -283.39)" fill="#fff"/>
          </g>
        </g>
        <g id="Group_33" data-name="Group 33" transform="translate(0.001 16.568)">
          <g id="Group_29" data-name="Group 29" transform="translate(4.768)">
            <path id="Path_38" data-name="Path 38" d="M118.851,288.912h-4.275v-4.4h8.549v4.4h.986v-4.96a.531.531,0,0,0-.493-.562h-9.536a.531.531,0,0,0-.493.562v5.522a.531.531,0,0,0,.493.562h4.275v-.562A.532.532,0,0,1,118.851,288.912Z" transform="translate(-113.59 -283.39)" fill="#fff"/>
            <path id="Path_39" data-name="Path 39" d="M191.329,352.16h-4.275v.562a.531.531,0,0,1-.493.562h4.275v4.4h-8.549v-4.4H181.3v4.96a.531.531,0,0,0,.493.562h9.536a.531.531,0,0,0,.493-.562v-5.522A.531.531,0,0,0,191.329,352.16Z" transform="translate(-176.532 -346.638)" fill="#fff"/>
            <path id="Path_40" data-name="Path 40" d="M186.56,353.284a.531.531,0,0,0,.493-.562v-.562h-5.26a.531.531,0,0,0-.493.562v.562h5.26Z" transform="translate(-176.532 -346.638)" fill="#fff"/>
          </g>
          <g id="Group_30" data-name="Group 30" transform="translate(24.009 11.044)">
            <path id="Path_41" data-name="Path 41" d="M387.323,422.059a.433.433,0,0,1-.1-.011.427.427,0,0,1-.092-.032.453.453,0,0,1-.085-.051.551.551,0,0,1-.075-.07.6.6,0,0,1-.061-.086.565.565,0,0,1-.045-.1.581.581,0,0,1-.028-.105.614.614,0,0,1,0-.219.581.581,0,0,1,.028-.105.559.559,0,0,1,.106-.182.51.51,0,0,1,.075-.071.5.5,0,0,1,.085-.051.47.47,0,0,1,.092-.032.432.432,0,0,1,.192,0,.468.468,0,0,1,.092.032.525.525,0,0,1,.085.051.5.5,0,0,1,.075.071.5.5,0,0,1,.061.085.594.594,0,0,1,.046.1.656.656,0,0,1,.027.105.614.614,0,0,1,0,.219.656.656,0,0,1-.027.105.566.566,0,0,1-.046.1.5.5,0,0,1-.061.086.544.544,0,0,1-.075.07.476.476,0,0,1-.085.051.422.422,0,0,1-.092.032A.434.434,0,0,1,387.323,422.059Z" transform="translate(-386.83 -420.935)" fill="#fff"/>
          </g>
          <g id="Group_31" data-name="Group 31" transform="translate(19.071 5.523)">
            <path id="Path_42" data-name="Path 42" d="M326.739,358.816h-2.948a.567.567,0,0,1,0-1.124h2.455v-4.4H317.7v4.4h2.8a.567.567,0,0,1,0,1.124H317.2a.531.531,0,0,1-.493-.562v-5.522a.531.531,0,0,1,.493-.562h9.536a.531.531,0,0,1,.493.562v5.522A.532.532,0,0,1,326.739,358.816Z" transform="translate(-316.71 -352.17)" fill="#fff"/>
          </g>
          <g id="Group_32" data-name="Group 32" transform="translate(0 5.523)">
            <path id="Path_43" data-name="Path 43" d="M55.919,358.816H46.383a.531.531,0,0,1-.493-.562v-5.522a.531.531,0,0,1,.493-.562h9.536a.531.531,0,0,1,.493.562v5.522A.531.531,0,0,1,55.919,358.816Zm-9.043-1.124h8.55v-4.4h-8.55Z" transform="translate(-45.89 -352.17)" fill="#fff"/>
          </g>
        </g>
        <g id="Group_34" data-name="Group 34" transform="translate(4.768 5.523)">
          <path id="Path_44" data-name="Path 44" d="M123.619,152.486h-9.536a.531.531,0,0,1-.493-.562V146.4a.531.531,0,0,1,.493-.562h9.536a.531.531,0,0,1,.493.562v3.064a.5.5,0,1,1-.986,0v-2.5h-8.55v4.4h9.043a.567.567,0,0,1,0,1.125Z" transform="translate(-113.59 -145.84)" fill="#fff"/>
        </g>
        <g id="Group_35" data-name="Group 35">
          <path id="Path_45" data-name="Path 45" d="M55.909,83.707H46.373a.531.531,0,0,1-.493-.562V77.622a.531.531,0,0,1,.493-.562h9.536a.531.531,0,0,1,.493.562v5.522A.532.532,0,0,1,55.909,83.707Zm-9.043-1.124h8.551v-4.4H46.866Z" transform="translate(-45.88 -77.06)" fill="#fff"/>
        </g>
        <g id="Group_36" data-name="Group 36" transform="translate(0.001 13.778)">
          <path id="Path_46" data-name="Path 46" d="M46.383,249.779a.433.433,0,0,1-.1-.01.509.509,0,0,1-.092-.032.452.452,0,0,1-.085-.052.441.441,0,0,1-.075-.07.6.6,0,0,1-.135-.287.638.638,0,0,1-.01-.11.653.653,0,0,1,.01-.11.6.6,0,0,1,.028-.1.565.565,0,0,1,.045-.1.554.554,0,0,1,.061-.086.512.512,0,0,1,.075-.07.448.448,0,0,1,.085-.051.5.5,0,0,1,.092-.032.434.434,0,0,1,.193,0,.487.487,0,0,1,.092.032.448.448,0,0,1,.085.051.512.512,0,0,1,.075.07.554.554,0,0,1,.061.086.565.565,0,0,1,.045.1.6.6,0,0,1,.028.1.587.587,0,0,1,.01.11.575.575,0,0,1-.01.11.581.581,0,0,1-.135.287.441.441,0,0,1-.075.07.452.452,0,0,1-.085.052.492.492,0,0,1-.092.032A.433.433,0,0,1,46.383,249.779Z" transform="translate(-45.89 -248.655)" fill="#fff"/>
        </g>
        <g id="Group_37" data-name="Group 37" transform="translate(9.536 11.045)">
          <path id="Path_47" data-name="Path 47" d="M191.329,221.257h-9.536a.531.531,0,0,1-.493-.562v-5.523a.531.531,0,0,1,.493-.562h9.536a.531.531,0,0,1,.493.562v5.523A.532.532,0,0,1,191.329,221.257Zm-9.043-1.124h8.55v-4.4h-8.55Z" transform="translate(-181.3 -214.61)" fill="#fff"/>
        </g>
      </g>
    </g>
  </g>
</svg>
