<svg xmlns="http://www.w3.org/2000/svg" width="15.437" height="15.437" viewBox="0 0 15.437 15.437">
  <g id="_5402428_day_light_mode_sun_climate_icon" data-name="5402428_day_light_mode_sun_climate_icon" transform="translate(-2 -2)">
    <circle id="Ellipse_44" data-name="Ellipse 44" cx="4" cy="4" r="4" transform="translate(6 5.437)" fill="#fff"/>
    <path id="Path_120" data-name="Path 120" d="M20.544,12.544h-.772a.772.772,0,0,1,0-1.544h.772a.772.772,0,0,1,0,1.544Z" transform="translate(-3.879 -2.054)" fill="#fff"/>
    <path id="Path_121" data-name="Path 121" d="M3.544,12.544H2.772a.772.772,0,1,1,0-1.544h.772a.772.772,0,1,1,0,1.544Z" transform="translate(0 -2.054)" fill="#fff"/>
    <path id="Path_122" data-name="Path 122" d="M17.443,6.71A.769.769,0,0,1,16.934,5.4l.548-.548A.772.772,0,1,1,18.57,5.939l-.548.548A.772.772,0,0,1,17.443,6.71Z" transform="translate(-3.356 -0.589)" fill="#fff"/>
    <path id="Path_123" data-name="Path 123" d="M5.412,18.767a.768.768,0,0,1-.548-1.312l.548-.509A.772.772,0,0,1,6.5,18.033l-.548.548A.772.772,0,0,1,5.412,18.767Z" transform="translate(-0.602 -3.368)" fill="#fff"/>
    <path id="Path_124" data-name="Path 124" d="M11.772,4.315A.772.772,0,0,1,11,3.544V2.772a.772.772,0,1,1,1.544,0v.772A.772.772,0,0,1,11.772,4.315Z" transform="translate(-2.054)" fill="#fff"/>
    <path id="Path_125" data-name="Path 125" d="M11.772,21.315A.772.772,0,0,1,11,20.544v-.772a.772.772,0,0,1,1.544,0v.772A.772.772,0,0,1,11.772,21.315Z" transform="translate(-2.054 -3.879)" fill="#fff"/>
    <path id="Path_126" data-name="Path 126" d="M5.963,6.735a.772.772,0,0,1-.54-.224l-.548-.548A.772.772,0,0,1,5.963,4.875l.548.548a.768.768,0,0,1-.548,1.312Z" transform="translate(-0.614 -0.614)" fill="#fff"/>
    <path id="Path_127" data-name="Path 127" d="M18.021,18.793a.772.772,0,0,1-.54-.224l-.509-.548a.772.772,0,0,1,1.05-1.05l.548.548a.732.732,0,0,1-.548,1.274Z" transform="translate(-3.394 -3.394)" fill="#fff"/>
  </g>
</svg>
