<svg xmlns="http://www.w3.org/2000/svg" width="22.497" height="22.486" viewBox="0 0 22.497 22.486">
  <g id="_7148739_bright_sun_light_icon" data-name="7148739_bright_sun_light_icon" transform="translate(-0.25 -0.25)">
    <path id="Path_546" data-name="Path 546" d="M14.582,20.044a5.462,5.462,0,1,1,5.462-5.462,5.462,5.462,0,0,1-5.462,5.462Zm0-9.294a3.832,3.832,0,1,0,3.832,3.832A3.832,3.832,0,0,0,14.582,10.749Z" transform="translate(-3.089 -3.089)" fill="#FC4C1E"/>
    <path id="Path_547" data-name="Path 547" d="M17.065,3.653h-.022a.815.815,0,0,1-.793-.837L16.3,1.043A.826.826,0,0,1,17.136.25a.815.815,0,0,1,.792.837L17.879,2.86a.814.814,0,0,1-.814.793Z" transform="translate(-5.571 0)" fill="#FC4C1E"/>
    <path id="Path_548" data-name="Path 548" d="M26.458,7.842a.815.815,0,0,1-.56-1.407l1.289-1.219A.815.815,0,1,1,28.307,6.4L27.018,7.619a.809.809,0,0,1-.56.223Z" transform="translate(-8.843 -1.652)" fill="#FC4C1E"/>
    <path id="Path_549" data-name="Path 549" d="M32.117,17.94h-.023l-1.774-.05a.814.814,0,0,1-.791-.837.789.789,0,0,1,.838-.791l1.773.05a.815.815,0,1,1-.023,1.629Z" transform="translate(-10.196 -5.575)" fill="#FC4C1E"/>
    <path id="Path_550" data-name="Path 550" d="M27.662,28.57a.813.813,0,0,1-.592-.255l-1.218-1.29a.815.815,0,1,1,1.184-1.119L28.253,27.2a.814.814,0,0,1-.592,1.374Z" transform="translate(-8.838 -8.845)" fill="#FC4C1E"/>
    <path id="Path_551" data-name="Path 551" d="M16.965,32.932H16.94a.814.814,0,0,1-.791-.838l.051-1.773a.815.815,0,0,1,1.629.047l-.051,1.773A.814.814,0,0,1,16.965,32.932Z" transform="translate(-5.537 -10.196)" fill="#FC4C1E"/>
    <path id="Path_552" data-name="Path 552" d="M5.677,28.461a.814.814,0,0,1-.559-1.407l1.29-1.217a.815.815,0,1,1,1.118,1.185L6.235,28.239a.809.809,0,0,1-.559.222Z" transform="translate(-1.606 -8.828)" fill="#FC4C1E"/>
    <path id="Path_553" data-name="Path 553" d="M2.838,17.821H2.814l-1.773-.053a.815.815,0,0,1-.79-.839.806.806,0,0,1,.838-.79l1.773.053a.815.815,0,1,1-.024,1.629Z" transform="translate(0 -5.533)" fill="#FC4C1E"/>
    <path id="Path_554" data-name="Path 554" d="M7.05,7.774a.813.813,0,0,1-.593-.256L5.24,6.227A.815.815,0,0,1,6.427,5.109L7.644,6.4A.815.815,0,0,1,7.05,7.774Z" transform="translate(-1.66 -1.603)" fill="#FC4C1E"/>
  </g>
</svg>
