<svg xmlns="http://www.w3.org/2000/svg" width="12.528" height="16.098" viewBox="0 0 12.528 16.098">
  <g id="_274903_map_pin_web_technology_place_icon" data-name="274903_map_pin_web_technology_place_icon" transform="translate(-9 -0.451)">
    <path id="Path_116" data-name="Path 116" d="M21.528,6.715a6.264,6.264,0,1,0-11.155,3.911s0,0,0,0h0l4.648,5.8a.313.313,0,0,0,.489,0l4.647-5.8s0,0,0,0h0A6.236,6.236,0,0,0,21.528,6.715ZM19.141,9.89l-3.877,4.842L11.425,9.938l-.039-.049-.035-.046a4.956,4.956,0,0,1-1.1-3.128,5.011,5.011,0,1,1,10.022,0,4.955,4.955,0,0,1-1.1,3.129Z" fill="#fefefe"/>
    <circle id="Ellipse_43" data-name="Ellipse 43" cx="2.192" cy="2.192" r="2.192" transform="translate(13.071 4.522)" fill="#fefefe"/>
  </g>
</svg>
