<svg xmlns="http://www.w3.org/2000/svg" width="20" height="16" viewBox="0 0 20.222 16">
  <g id="mail_email_e-mail_letter" data-name="mail email e-mail letter" transform="translate(-3 -7)">
    <path id="Path_5" data-name="Path 5" d="M22.444,13a.778.778,0,0,0-.778.778V20a.778.778,0,0,1-.778.778H5.333A.778.778,0,0,1,4.556,20V13.778a.778.778,0,1,0-1.556,0V20a2.337,2.337,0,0,0,2.333,2.333H20.889A2.337,2.337,0,0,0,23.222,20V13.778A.778.778,0,0,0,22.444,13Z" transform="translate(0 0.667)" fill="#fc4c1e"/>
    <path id="Path_6" data-name="Path 6" d="M12.687,16.178a.778.778,0,0,0,.933,0l9.186-6.891a.778.778,0,0,0,.233-.957,2.38,2.38,0,0,0-.459-.646A2.333,2.333,0,0,0,20.932,7H5.376a2.333,2.333,0,0,0-1.649.684,2.38,2.38,0,0,0-.459.646.778.778,0,0,0,.233.957ZM5.376,8.556H20.932a.7.7,0,0,1,.218,0l-8,6.028-8-6.028a.7.7,0,0,1,.218,0Z" transform="translate(-0.043)" fill="#fc4c1e"/>
  </g>
</svg>
