<svg xmlns="http://www.w3.org/2000/svg" width="17.5" height="14" viewBox="0 0 17.5 14">
  <g id="mail_email_e-mail_letter" data-name="mail email e-mail letter" transform="translate(-3 -7)">
    <path id="Path_5" data-name="Path 5" d="M19.827,13a.677.677,0,0,0-.673.681v5.444a.677.677,0,0,1-.673.681H5.019a.677.677,0,0,1-.673-.681V13.681a.673.673,0,1,0-1.346,0v5.444a2.053,2.053,0,0,0,.592,1.443,2.008,2.008,0,0,0,1.427.6H18.481a2.008,2.008,0,0,0,1.427-.6,2.053,2.053,0,0,0,.592-1.443V13.681A.677.677,0,0,0,19.827,13Z" transform="translate(0 -0.167)" fill="#fff"/>
    <path id="Path_6" data-name="Path 6" d="M11.408,15.031a.667.667,0,0,0,.808,0L20.163,9a.685.685,0,0,0,.2-.837,2.082,2.082,0,0,0-.4-.565A2.008,2.008,0,0,0,18.541,7H5.082a2.008,2.008,0,0,0-1.427.6,2.082,2.082,0,0,0-.4.565A.685.685,0,0,0,3.46,9ZM5.082,8.361H18.541a.6.6,0,0,1,.188,0l-6.918,5.274L4.893,8.361a.6.6,0,0,1,.188,0Z" transform="translate(-0.061)" fill="#fff"/>
  </g>
</svg>
