<svg xmlns="http://www.w3.org/2000/svg" width="48.475" height="52.485" viewBox="0 0 48.475 52.485">
  <g id="_6588809_cog_construction_engineering_helmet_icon" data-name="6588809_cog_construction_engineering_helmet_icon" transform="translate(-1.996 -0.6)">
    <path id="Path_51" data-name="Path 51" d="M49.945,29.5,47,26.561V23.792A20.969,20.969,0,0,0,40.945,9.081l-2.6,11.6a1.685,1.685,0,0,1-1.731,1.385h-.346a1.9,1.9,0,0,1-1.385-2.077l3.462-15.4A1.542,1.542,0,0,0,37.483,3.2a25.3,25.3,0,0,0-22.327,0,1.623,1.623,0,0,0-1.038,1.385l3.462,15.4A1.752,1.752,0,0,1,16.2,22.061h-.346a1.685,1.685,0,0,1-1.731-1.385l-2.6-11.6A20.969,20.969,0,0,0,5.464,23.792v2.769L2.522,29.5a1.58,1.58,0,0,0-.346,1.9,1.514,1.514,0,0,0,1.558,1.038h45a1.514,1.514,0,0,0,1.558-1.038A1.58,1.58,0,0,0,49.945,29.5Z" transform="translate(0)" fill="#fc4c1e"/>
    <path id="Path_52" data-name="Path 52" d="M29.619,21.073a5.888,5.888,0,0,1,.173,1.731,6.923,6.923,0,0,1-13.846,0c0-.519.173-1.212.173-1.731H6.773c0,.519-.173,1.212-.173,1.731a15.435,15.435,0,0,0,.519,3.808,1.594,1.594,0,0,0,1.9,1.212,2.805,2.805,0,0,1,2.769,1.385,2.34,2.34,0,0,1-.173,2.942,1.618,1.618,0,0,0,.173,2.25,16.829,16.829,0,0,0,6.577,3.808,1.766,1.766,0,0,0,2.077-1.038,2.562,2.562,0,0,1,4.846,0,1.663,1.663,0,0,0,1.558,1.038h.519A16.829,16.829,0,0,0,33.946,34.4a1.631,1.631,0,0,0,.173-2.25,2.62,2.62,0,0,1-.173-2.942,2.809,2.809,0,0,1,2.769-1.385,1.715,1.715,0,0,0,1.9-1.385,14.416,14.416,0,0,0,.519-3.808,5.888,5.888,0,0,0-.173-1.731H29.619Z" transform="translate(3.364 14.834)" fill="#fc4c1e"/>
  </g>
</svg>
