<svg xmlns="http://www.w3.org/2000/svg" width="49.004" height="44.104" viewBox="0 0 49.004 44.104">
  <g id="Layer_2" data-name="Layer 2" transform="translate(-2 -3)">
    <path id="Path_53" data-name="Path 53" d="M26.5,5.45V3H21.6V5.45H14.251V3h-4.9V5.45H2v4.9H4.45V17.7H2v4.9H4.45v7.351H2v4.9H4.45V42.2H2v4.9H33.853V42.2H31.4V34.853h2.45v-4.9H31.4V22.6h2.45V17.7H31.4V10.351h2.45V5.45Zm0,29.4H9.351v-4.9H26.5Zm0-12.251H9.351V17.7H26.5Z" transform="translate(0 0)" fill="#fc4c1e"/>
    <path id="Path_54" data-name="Path 54" d="M25.36,10.156,23.351,7.24l-2.009,2.916C19.724,12.483,16,18.217,16,21.353a7.351,7.351,0,1,0,14.7,0C30.7,18.217,26.977,12.483,25.36,10.156Z" transform="translate(20.303 6.149)" fill="#fc4c1e"/>
  </g>
</svg>
