<svg xmlns="http://www.w3.org/2000/svg" width="44.824" height="43.526" viewBox="0 0 44.824 43.526">
  <g id="Layer_2" transform="translate(-1.88 -70.06)">
    <g id="Group_39" data-name="Group 39" transform="translate(1.88 70.06)">
      <g id="Group_38" data-name="Group 38" transform="translate(0 0)">
        <g id="Group_23" data-name="Group 23" transform="translate(0.001 16.729)">
          <path id="Path_33" data-name="Path 33" d="M61.08,224.678H46.637a.8.8,0,0,1-.747-.851v-1.637a.753.753,0,1,1,1.493,0v.786h12.95v-6.662H47.383v.849a.753.753,0,1,1-1.493,0v-1.7a.8.8,0,0,1,.747-.851H61.08a.8.8,0,0,1,.747.851v8.365A.8.8,0,0,1,61.08,224.678Z" transform="translate(-45.89 -214.61)" fill="#fc4c1e"/>
        </g>
        <g id="Group_24" data-name="Group 24" transform="translate(0.001 8.365)">
          <path id="Path_34" data-name="Path 34" d="M53.858,155.907H46.637a.8.8,0,0,1-.747-.851v-8.364a.8.8,0,0,1,.747-.851h7.221a.8.8,0,0,1,.747.851v8.364A.8.8,0,0,1,53.858,155.907Zm-6.474-1.7h5.728v-6.661H47.383Z" transform="translate(-45.89 -145.84)" fill="#fc4c1e"/>
        </g>
        <g id="Group_28" data-name="Group 28" transform="translate(0.001 25.094)">
          <g id="Group_25" data-name="Group 25">
            <path id="Path_35" data-name="Path 35" d="M53.858,293.457H46.637a.8.8,0,0,1-.747-.851v-8.364a.8.8,0,0,1,.747-.851h7.221a.8.8,0,0,1,.747.851v8.364A.8.8,0,0,1,53.858,293.457Zm-6.474-1.7h5.728v-6.661H47.383Z" transform="translate(-45.89 -283.39)" fill="#fc4c1e"/>
          </g>
          <g id="Group_26" data-name="Group 26" transform="translate(21.664)">
            <path id="Path_36" data-name="Path 36" d="M264.19,293.457H249.747a.8.8,0,0,1-.747-.851v-8.364a.8.8,0,0,1,.747-.851H264.19a.8.8,0,0,1,.747.851v8.364A.8.8,0,0,1,264.19,293.457Zm-13.7-1.7h12.95v-6.661h-12.95Z" transform="translate(-249 -283.39)" fill="#fc4c1e"/>
          </g>
          <g id="Group_27" data-name="Group 27" transform="translate(7.221)">
            <path id="Path_37" data-name="Path 37" d="M128.78,293.457H114.337a.8.8,0,0,1-.747-.851v-8.364a.8.8,0,0,1,.747-.851H128.78a.8.8,0,0,1,.747.851v8.364A.8.8,0,0,1,128.78,293.457Zm-13.7-1.7h12.95v-6.661h-12.95Z" transform="translate(-113.59 -283.39)" fill="#fc4c1e"/>
          </g>
        </g>
        <g id="Group_33" data-name="Group 33" transform="translate(0.001 25.094)">
          <g id="Group_29" data-name="Group 29" transform="translate(7.221)">
            <path id="Path_38" data-name="Path 38" d="M121.559,291.754h-6.474v-6.661h12.949v6.661h1.493v-7.513a.8.8,0,0,0-.747-.851H114.337a.8.8,0,0,0-.747.851v8.364a.8.8,0,0,0,.747.851h6.474v-.851A.805.805,0,0,1,121.559,291.754Z" transform="translate(-113.59 -283.39)" fill="#fc4c1e"/>
            <path id="Path_39" data-name="Path 39" d="M196.49,352.16h-6.475v.851a.8.8,0,0,1-.747.851h6.474v6.661H182.793v-6.661H181.3v7.512a.8.8,0,0,0,.747.851H196.49a.8.8,0,0,0,.747-.851v-8.364A.8.8,0,0,0,196.49,352.16Z" transform="translate(-174.078 -343.796)" fill="#fc4c1e"/>
            <path id="Path_40" data-name="Path 40" d="M189.268,353.863a.8.8,0,0,0,.747-.851v-.851h-7.968a.8.8,0,0,0-.747.851v.851h7.968Z" transform="translate(-174.078 -343.796)" fill="#fc4c1e"/>
          </g>
          <g id="Group_30" data-name="Group 30" transform="translate(36.366 16.728)">
            <path id="Path_41" data-name="Path 41" d="M387.577,422.638a.653.653,0,0,1-.145-.017.643.643,0,0,1-.14-.049.684.684,0,0,1-.129-.078.838.838,0,0,1-.114-.106.9.9,0,0,1-.093-.13.858.858,0,0,1-.068-.147.883.883,0,0,1-.043-.159.93.93,0,0,1,0-.332.883.883,0,0,1,.043-.159.9.9,0,0,1,.068-.147.891.891,0,0,1,.093-.129.77.77,0,0,1,.114-.107.755.755,0,0,1,.129-.078.714.714,0,0,1,.14-.049.655.655,0,0,1,.291,0,.711.711,0,0,1,.14.049.8.8,0,0,1,.129.078.835.835,0,0,1,.206.236.9.9,0,0,1,.069.147,1,1,0,0,1,.042.159.93.93,0,0,1,0,.332.994.994,0,0,1-.042.159.855.855,0,0,1-.069.147.764.764,0,0,1-.093.13.826.826,0,0,1-.113.106.719.719,0,0,1-.129.078.634.634,0,0,1-.14.049A.655.655,0,0,1,387.577,422.638Z" transform="translate(-386.83 -420.935)" fill="#fc4c1e"/>
          </g>
          <g id="Group_31" data-name="Group 31" transform="translate(28.887 8.365)">
            <path id="Path_42" data-name="Path 42" d="M331.9,362.236h-4.465a.859.859,0,0,1,0-1.7h3.718v-6.661H318.2v6.661h4.235a.859.859,0,0,1,0,1.7h-4.981a.8.8,0,0,1-.747-.851v-8.364a.8.8,0,0,1,.747-.851H331.9a.8.8,0,0,1,.747.851v8.364A.805.805,0,0,1,331.9,362.236Z" transform="translate(-316.71 -352.17)" fill="#fc4c1e"/>
          </g>
          <g id="Group_32" data-name="Group 32" transform="translate(0 8.365)">
            <path id="Path_43" data-name="Path 43" d="M61.08,362.236H46.637a.8.8,0,0,1-.747-.851v-8.364a.8.8,0,0,1,.747-.851H61.08a.8.8,0,0,1,.747.851v8.364A.8.8,0,0,1,61.08,362.236Zm-13.7-1.7h12.95v-6.661H47.383Z" transform="translate(-45.89 -352.17)" fill="#fc4c1e"/>
          </g>
        </g>
        <g id="Group_34" data-name="Group 34" transform="translate(7.222 8.365)">
          <path id="Path_44" data-name="Path 44" d="M128.78,155.907H114.337a.8.8,0,0,1-.747-.851v-8.364a.8.8,0,0,1,.747-.851H128.78a.8.8,0,0,1,.747.851v4.641a.753.753,0,1,1-1.493,0v-3.791h-12.95V154.2h13.7a.859.859,0,0,1,0,1.7Z" transform="translate(-113.59 -145.84)" fill="#fc4c1e"/>
        </g>
        <g id="Group_35" data-name="Group 35">
          <path id="Path_45" data-name="Path 45" d="M61.071,87.128H46.627a.8.8,0,0,1-.747-.851V77.911a.8.8,0,0,1,.747-.851H61.071a.8.8,0,0,1,.747.851v8.364A.805.805,0,0,1,61.071,87.128Zm-13.7-1.7H60.324V78.763H47.373Z" transform="translate(-45.88 -77.06)" fill="#fc4c1e"/>
        </g>
        <g id="Group_36" data-name="Group 36" transform="translate(0.001 20.87)">
          <path id="Path_46" data-name="Path 46" d="M46.637,250.357a.656.656,0,0,1-.146-.016.768.768,0,0,1-.14-.049.683.683,0,0,1-.128-.079.669.669,0,0,1-.114-.106.914.914,0,0,1-.2-.435.965.965,0,0,1-.015-.167.988.988,0,0,1,.015-.167.905.905,0,0,1,.043-.158.857.857,0,0,1,.068-.147.837.837,0,0,1,.093-.13.773.773,0,0,1,.114-.106.679.679,0,0,1,.128-.078.766.766,0,0,1,.14-.049.659.659,0,0,1,.292,0,.739.739,0,0,1,.14.049.679.679,0,0,1,.128.078.773.773,0,0,1,.114.106.838.838,0,0,1,.093.13.857.857,0,0,1,.068.147.907.907,0,0,1,.043.158.889.889,0,0,1,.015.167.871.871,0,0,1-.015.167.88.88,0,0,1-.2.435.669.669,0,0,1-.114.106.683.683,0,0,1-.128.079.742.742,0,0,1-.14.049A.656.656,0,0,1,46.637,250.357Z" transform="translate(-45.89 -248.655)" fill="#fc4c1e"/>
        </g>
        <g id="Group_37" data-name="Group 37" transform="translate(14.444 16.729)">
          <path id="Path_47" data-name="Path 47" d="M196.49,224.678H182.047a.8.8,0,0,1-.747-.851v-8.365a.8.8,0,0,1,.747-.851H196.49a.8.8,0,0,1,.747.851v8.365A.805.805,0,0,1,196.49,224.678Zm-13.7-1.7h12.95v-6.662h-12.95Z" transform="translate(-181.3 -214.61)" fill="#fc4c1e"/>
        </g>
      </g>
    </g>
  </g>
</svg>
