<svg xmlns="http://www.w3.org/2000/svg" width="16.129" height="20" viewBox="0 0 16.129 20">
  <g id="Pdf" transform="translate(-14 -2)">
    <g id="Group_78" data-name="Group 78" transform="translate(14 2)">
      <g id="Group_75" data-name="Group 75" transform="translate(0 0)">
        <g id="Group_74" data-name="Group 74">
          <path id="Path_154" data-name="Path 154" d="M28.516,22h-12.9A1.615,1.615,0,0,1,14,20.387V3.613A1.615,1.615,0,0,1,15.613,2h6.562a1.6,1.6,0,0,1,1.14.472l6.341,6.341a1.6,1.6,0,0,1,.472,1.14V20.387A1.615,1.615,0,0,1,28.516,22ZM15.613,2.645a.969.969,0,0,0-.968.968V20.387a.969.969,0,0,0,.968.968h12.9a.969.969,0,0,0,.968-.968V9.954A.975.975,0,0,0,29.2,9.27L22.859,2.929a.961.961,0,0,0-.684-.283Z" transform="translate(-14 -2)" fill="#fff"/>
        </g>
      </g>
      <g id="Group_77" data-name="Group 77" transform="translate(3.016 6.29)">
        <g id="Group_76" data-name="Group 76">
          <path id="Path_155" data-name="Path 155" d="M42.78,47.342a.509.509,0,0,0-.148-.255,2.061,2.061,0,0,0-1.331-.315,10.993,10.993,0,0,0-1.6.118,3.986,3.986,0,0,1-.742-.513,5.419,5.419,0,0,1-1.34-2.079c.019-.076.035-.142.052-.21a13.525,13.525,0,0,0,.235-2.435.708.708,0,0,0-.042-.174l-.027-.071a.577.577,0,0,0-.526-.4l-.158,0h0a.594.594,0,0,0-.606.381,7.054,7.054,0,0,0,.369,3.176l-.094.226c-.26.635-.585,1.274-.873,1.837l-.037.073c-.3.592-.577,1.1-.827,1.521l-.256.135c-.019.01-.46.244-.563.3a3.148,3.148,0,0,0-1.553,1.589.39.39,0,0,0,.148.432l.248.126a.763.763,0,0,0,.339.081c.624,0,1.348-.777,2.347-2.519a23.344,23.344,0,0,1,3.615-.858,6.236,6.236,0,0,0,2.634.835,1.219,1.219,0,0,0,.31-.034.538.538,0,0,0,.308-.21A1.116,1.116,0,0,0,42.78,47.342Zm-9.471,3.066a4.333,4.333,0,0,1,1.231-1.473c.042-.034.145-.131.239-.221A4.449,4.449,0,0,1,33.309,50.408Zm3.945-9.085c.2,0,.315.5.324.979a2.013,2.013,0,0,1-.239,1.053,5.112,5.112,0,0,1-.169-1.315S37.162,41.323,37.254,41.323ZM36.077,47.8q.21-.375.434-.794a14.861,14.861,0,0,0,.761-1.661,5.5,5.5,0,0,0,1.256,1.56c.063.052.129.1.2.158A15.957,15.957,0,0,0,36.077,47.8Zm6.36-.056a.929.929,0,0,1-.35.06,4.109,4.109,0,0,1-1.452-.439c.244-.018.468-.027.668-.027a2.563,2.563,0,0,1,.834.09C42.494,47.516,42.5,47.7,42.436,47.74Z" transform="translate(-32.697 -41)" fill="#fff"/>
        </g>
      </g>
    </g>
  </g>
</svg>
