<svg xmlns="http://www.w3.org/2000/svg" width="32.225" height="36.828" viewBox="0 0 32.225 36.828">
  <path id="_5933490_building_burj_al_arab_dubai_emirates_house_icon" data-name="5933490_building_burj al arab_dubai_emirates_house_icon" d="M64.575,36.828a.575.575,0,0,1,0-1.151H68.22l.384-2.3a.6.6,0,0,1,.575-.575h2.877V12.084H70.33a.575.575,0,1,1,0-1.151h1.726V.575a.575.575,0,0,1,1.151,0V2.642a28.9,28.9,0,0,1,9.785,8.291h2.3a.575.575,0,1,1,0,1.151H83.812A28.639,28.639,0,0,1,88.744,28.2a28.974,28.974,0,0,1-.367,4.6h2.668c.293,0,.466.195.555.5l.022.09.382,2.29h3.644a.575.575,0,1,1,0,1.151H64.575ZM90.47,33.951H69.754l-.345,1.726H90.816Zm-17.263-30v6.986h5.171a26.632,26.632,0,0,0-2.87-2.709V9.783a.575.575,0,1,1-1.151,0V6.905a.575.575,0,0,1,1.128-.163,27.581,27.581,0,0,1,10.956,22.03q0,1.368-.131,2.7l-.025.2a.575.575,0,0,1-.562.493l-.093-.006a.544.544,0,0,1-.489-.532l0-.071.012-.109a26.783,26.783,0,0,0,.015-5.208L77.358,32.8h9.853a27.667,27.667,0,0,0-14-28.853Zm1.151,8.137H73.206V32.8h1.151ZM83.8,25.895H75.508V32.8h.062l.033-.03L83.8,25.895Zm-.611-7.488-7.554,6.337h9.356A26.281,26.281,0,0,0,83.185,18.407Zm-1.8.007H75.508v4.93ZM80.229,13.2l-4.721,3.96v.1h7.157A26.461,26.461,0,0,0,80.229,13.2Zm-.86-1.116H75.509v3.574l4.022-3.374Z" transform="translate(-64)" fill="#fc4c1e"/>
</svg>
