<svg xmlns="http://www.w3.org/2000/svg" width="29.837" height="34.647" viewBox="0 0 29.837 34.647">
  <g id="_7757890_building_real_estate_tower_condo_urban_icon" data-name="7757890_building_real estate_tower_condo_urban_icon" transform="translate(-78.866 -50.446)">
    <path id="Path_135" data-name="Path 135" d="M108.039,83.72h-2.73V70.047h-2.4v-9.22h-2.25V57.01H98.975V53.628H94.47V51.109a.687.687,0,0,0-1.374,0v2.519H88.589V57.01H86.9v3.817H84.659v9.22h-2.4V83.72h-2.73a.687.687,0,0,0,0,1.374h28.511a.687.687,0,0,0,0-1.374ZM101.532,62.2v7.846h-5.36V62.2Zm-2.247-3.815v2.442H96.169V58.384ZM94.47,56.91V55h3.135V57.01H94.45a.681.681,0,0,0,.02-.1ZM89.963,55H93.1V56.91a.68.68,0,0,0,.02.1H89.963Zm-1.68,3.382H91.4v2.442H88.283ZM86.036,62.2H91.4v7.846H86.036Zm-2.4,21.519v-12.3H91.4v12.3Zm9.136,0V58.384H94.8V83.72Zm3.4,0v-12.3h7.763v12.3Z" fill="#fc4c1e"/>
    <rect id="Rectangle_189" data-name="Rectangle 189" width="1.548" height="1.548" transform="translate(84.855 72.857)" fill="#fc4c1e"/>
    <rect id="Rectangle_190" data-name="Rectangle 190" width="1.548" height="1.548" transform="translate(87.832 72.857)" fill="#fc4c1e"/>
    <rect id="Rectangle_191" data-name="Rectangle 191" width="1.548" height="1.548" transform="translate(84.855 76.489)" fill="#fc4c1e"/>
    <rect id="Rectangle_192" data-name="Rectangle 192" width="1.548" height="1.548" transform="translate(87.832 76.489)" fill="#fc4c1e"/>
    <rect id="Rectangle_193" data-name="Rectangle 193" width="1.548" height="1.548" transform="translate(87.832 63.534)" fill="#fc4c1e"/>
    <rect id="Rectangle_194" data-name="Rectangle 194" width="1.548" height="1.548" transform="translate(87.832 67.166)" fill="#fc4c1e"/>
    <rect id="Rectangle_195" data-name="Rectangle 195" width="1.548" height="1.548" transform="translate(84.855 80.121)" fill="#fc4c1e"/>
    <rect id="Rectangle_196" data-name="Rectangle 196" width="1.548" height="1.548" transform="translate(87.832 80.121)" fill="#fc4c1e"/>
    <rect id="Rectangle_197" data-name="Rectangle 197" width="1.548" height="1.548" transform="translate(101.164 72.857)" fill="#fc4c1e"/>
    <rect id="Rectangle_198" data-name="Rectangle 198" width="1.548" height="1.548" transform="translate(98.187 72.857)" fill="#fc4c1e"/>
    <rect id="Rectangle_199" data-name="Rectangle 199" width="1.548" height="1.548" transform="translate(101.164 76.489)" fill="#fc4c1e"/>
    <rect id="Rectangle_200" data-name="Rectangle 200" width="1.548" height="1.548" transform="translate(98.187 76.489)" fill="#fc4c1e"/>
    <rect id="Rectangle_201" data-name="Rectangle 201" width="1.548" height="1.548" transform="translate(98.187 63.534)" fill="#fc4c1e"/>
    <rect id="Rectangle_202" data-name="Rectangle 202" width="1.548" height="1.548" transform="translate(98.187 67.166)" fill="#fc4c1e"/>
    <rect id="Rectangle_203" data-name="Rectangle 203" width="1.548" height="1.548" transform="translate(101.164 80.121)" fill="#fc4c1e"/>
    <rect id="Rectangle_204" data-name="Rectangle 204" width="1.548" height="1.548" transform="translate(98.187 80.121)" fill="#fc4c1e"/>
  </g>
</svg>
