<svg xmlns="http://www.w3.org/2000/svg" width="37" height="37" viewBox="0 0 37 37">
  <g id="_9024615_lightbulb_filament_light_icon" data-name="9024615_lightbulb_filament_light_icon" transform="translate(0 -0.418)">
    <rect id="Rectangle_207" data-name="Rectangle 207" width="37" height="37" transform="translate(0 0.418)" fill="none"/>
    <line id="Line_16" data-name="Line 16" x2="11" transform="translate(13 34.418)" fill="none" stroke="#fc4c1e" stroke-linecap="round" stroke-linejoin="round" stroke-width="2"/>
    <line id="Line_17" data-name="Line 17" y1="8" transform="translate(19 21.418)" fill="none" stroke="#fc4c1e" stroke-linecap="round" stroke-linejoin="round" stroke-width="2"/>
    <path id="Path_136" data-name="Path 136" d="M96,112l4.655,4.655L105.31,112" transform="translate(-82.034 -95.53)" fill="none" stroke="#fc4c1e" stroke-linecap="round" stroke-linejoin="round" stroke-width="2"/>
    <path id="Path_137" data-name="Path 137" d="M52.465,44.784A11.565,11.565,0,0,1,48,35.691a11.638,11.638,0,1,1,18.824,9.078,3.52,3.52,0,0,0-1.367,2.779v.873a1.164,1.164,0,0,1-1.164,1.164h-9.31a1.164,1.164,0,0,1-1.164-1.164v-.873A3.55,3.55,0,0,0,52.465,44.784Z" transform="translate(-41.016 -20.313)" fill="none" stroke="#fc4c1e" stroke-linecap="round" stroke-linejoin="round" stroke-width="2"/>
  </g>
</svg>
