<svg xmlns="http://www.w3.org/2000/svg" width="30" height="30" viewBox="0 0 30 30">
  <g id="Group_264" data-name="Group 264" transform="translate(-1146 -3855)">
    <rect id="Rectangle_155" data-name="Rectangle 155" width="30" height="30" rx="15" transform="translate(1146 3855)" fill="#1daefa"/>
    <path id="_2959740_bird_news_tweet_twitter_icon" data-name="2959740_bird_news_tweet_twitter_icon" d="M12.523,19.811a2.8,2.8,0,0,1,2,.883,5.457,5.457,0,0,0,1.7-.639,2.485,2.485,0,0,1-1.157,1.485h.009A3.875,3.875,0,0,0,16.6,21.11s-.17.485-1.33,1.408h0a7.927,7.927,0,0,1-5.007,7.655,8.063,8.063,0,0,1-2.74.491,7.681,7.681,0,0,1-4.22-1.24,5.826,5.826,0,0,0,.6.021A4.532,4.532,0,0,0,7.35,28.231H7.263a2.607,2.607,0,0,1-2.491-1.917.924.924,0,0,0,.534.132,2.918,2.918,0,0,0,.715-.1,2.73,2.73,0,0,1-2.176-2.7,1.924,1.924,0,0,0,1.03.323,1,1,0,0,0,.18-.014,2.677,2.677,0,0,1-.821-3.584,7.711,7.711,0,0,0,5.579,2.8h.047a2.821,2.821,0,0,1,1.717-3.147,2.2,2.2,0,0,1,.936-.2m2.765,2.71h0M17.539,18l-1.85,1.3a3.423,3.423,0,0,1-.907.379,3.742,3.742,0,0,0-2.265-.793h0a3.1,3.1,0,0,0-1.33.286,3.76,3.76,0,0,0-2.27,2.958,7.046,7.046,0,0,1-3.976-2.373l-.815-.946L3.453,19.86a3.6,3.6,0,0,0-.486,2.383l-.053,1.363a3.754,3.754,0,0,0,.814,2.386l.143.558a3.744,3.744,0,0,0,1.2,1.844,5.327,5.327,0,0,1-1.163.123c-.17,0-.346-.007-.524-.021L.1,28.223l2.654,1.95A8.614,8.614,0,0,0,7.525,31.59a9.013,9.013,0,0,0,3.059-.544,8.163,8.163,0,0,0,4.535-3.993,9.86,9.86,0,0,0,1.083-4.1,4.112,4.112,0,0,0,1.279-1.536l.732-2.084-1,.466Z" transform="translate(1151.905 3845.099)" fill="#fff"/>
  </g>
</svg>
