<svg xmlns="http://www.w3.org/2000/svg" width="52.362" height="52.366" viewBox="0 0 52.362 52.366">
  <path id="_7055175_consultation_target_mission_arrow_goal_icon" data-name="7055175_consultation_target_mission_arrow_goal_icon" d="M82.44,37.2a.579.579,0,0,0-.588-.323l-6.916.788-.006-.008-.009-.007.788-6.916a.579.579,0,0,0-.985-.475l-7.978,7.984a.579.579,0,0,0-.166.348l-.849,7.455L63.717,48.06a19.94,19.94,0,1,0,.819.819l2.014-2.014,7.455-.848a.579.579,0,0,0,.348-.167l7.984-7.984a.579.579,0,0,0,.1-.665Zm-8.731.858-2.948,2.948.661-5.806,2.949-2.948Zm-6.007.861,2.4-2.4-.662,5.807-2.4,2.4Zm1.106,23.617a18.783,18.783,0,1,1-5.916-13.658L58.865,52.9a13.084,13.084,0,1,0,.819.819L63.708,49.7a18.688,18.688,0,0,1,5.1,12.841Zm-19.638.881a.579.579,0,0,0,.819,0l4.157-4.157a5.258,5.258,0,1,1-.819-.819L49.17,62.6A.579.579,0,0,0,49.17,63.417Zm4.983-5.8a6.416,6.416,0,1,0,.819.819l3.893-3.9a11.922,11.922,0,1,1-.811-.817ZM73.669,44.884l-5.806.661,2.4-2.4,5.805-.663Zm3.72-3.72-5.807.662,2.948-2.948,5.807-.661Z" transform="translate(-30.14 -30.089)" fill="#fc4c1e"/>
</svg>
