<svg xmlns="http://www.w3.org/2000/svg" width="41" height="41" viewBox="0 0 41 41">
  <g id="_3952175_constructing_construction_crane_engineering_project_icon_1_" data-name="3952175_constructing_construction_crane_engineering_project_icon (1)" transform="translate(-3 -3)">
    <g id="Layer_10" data-name="Layer 10" transform="translate(15.724 3)">
      <path id="Path_60" data-name="Path 60" d="M35.845,4.414H21.707a.707.707,0,0,1,0-1.414H35.845a.707.707,0,1,1,0,1.414Z" transform="translate(-21 -3)" fill="#fff"/>
    </g>
    <g id="Layer_48" data-name="Layer 48" transform="translate(3 3)">
      <path id="Path_61" data-name="Path 61" d="M5.121,51.241H41.879a2.121,2.121,0,0,0,0-4.241H5.121a2.121,2.121,0,0,0,0,4.241Z" transform="translate(-3 -15.897)" fill="#fff"/>
      <path id="Path_62" data-name="Path 62" d="M41.879,55H5.121a2.121,2.121,0,0,0,0,4.241H41.879a2.121,2.121,0,0,0,0-4.241Z" transform="translate(-3 -18.241)" fill="#fff"/>
      <path id="Path_63" data-name="Path 63" d="M15.205,41.835a.707.707,0,0,0,.5-.205l7.422-7.422a.71.71,0,0,0-1-1L14.7,40.626a.707.707,0,0,0,.5,1.209Z" transform="translate(-6.369 -11.792)" fill="#fff"/>
      <path id="Path_64" data-name="Path 64" d="M37.2,33.2a.707.707,0,0,0,0,1l7.422,7.422a.71.71,0,1,0,1-1L38.207,33.2a.707.707,0,0,0-1,0Z" transform="translate(-12.964 -11.791)" fill="#fff"/>
      <path id="Path_65" data-name="Path 65" d="M29.948,24.914a4.948,4.948,0,0,0,1.082-9.776.707.707,0,0,0-.375-.12v-.771a4.241,4.241,0,0,0,3.534-4.178V7.241a4.241,4.241,0,1,0-8.483,0v2.828a4.241,4.241,0,0,0,3.534,4.178v.834a4.369,4.369,0,0,0-.954.226.709.709,0,0,0,.495,1.329,3.344,3.344,0,0,1,1.166-.2,3.534,3.534,0,1,1-3.534,3.534.707.707,0,1,0-1.414,0,4.948,4.948,0,0,0,4.948,4.948ZM28.534,8.655a1.414,1.414,0,1,1,1.414,1.414A1.414,1.414,0,0,1,28.534,8.655Z" transform="translate(-9.448 -3)" fill="#fff"/>
    </g>
  </g>
</svg>
