<svg xmlns="http://www.w3.org/2000/svg" width="41.298" height="41.991" viewBox="0 0 41.298 41.991">
  <g id="_9194691_construction_contractor_builder_worker_occupation_icon_1_" data-name="9194691_construction_contractor_builder_worker_occupation_icon (1)" transform="translate(-19.963 -16.001)">
    <path id="Path_66" data-name="Path 66" d="M177.826,23.3a5.568,5.568,0,0,0-.045.594,5.864,5.864,0,1,0,11.728,0,5.359,5.359,0,0,0-.045-.594.775.775,0,0,0,.74-.856s-.127-1.233-.13-1.244a4.64,4.64,0,0,0-3.294-4c-.3-.088-.574-.167-.8-.234v-.178A.788.788,0,0,0,185.19,16h-3.06a.788.788,0,0,0-.787.785v.176c-.235.071-.523.158-.833.253a4.594,4.594,0,0,0-3.291,3.966l-.13,1.258a.773.773,0,0,0,.738.858Zm5.825,4.889a4.3,4.3,0,0,1-4.294-4.295,4,4,0,0,1,.042-.584h8.49a3.729,3.729,0,0,1,.047.584A4.294,4.294,0,0,1,183.651,28.186Zm2.686-9.475a3.069,3.069,0,0,1,2.171,2.646c0,.016.042.374.042.374h-2.571V18.607ZM184.4,17.576v4.156h-1.5l.01-4.156Zm-5.619,3.768a3.032,3.032,0,0,1,2.177-2.62l.377-.115-.008,3.123h-2.586Z" transform="translate(-143.376)" fill="#fff"/>
    <path id="Path_67" data-name="Path 67" d="M185.121,198.5h-5.335a4.645,4.645,0,0,0-4.64,4.64v6.843c0,.348,0,.678,2.2,2.2.118.829.3,3.547.434,5.586.449,6.757.449,6.757,1.324,6.757h5.735c.856,0,.856,0,1.478-6.73.186-2.011.432-4.68.573-5.548,2.868-1.526,2.868-1.838,2.868-2.265v-6.843A4.645,4.645,0,0,0,185.121,198.5Zm-8.4,4.64a3.064,3.064,0,0,1,1.363-2.547l1.774,9.759s-2.282.017-2.322.023c-.345-.257-.651-.5-.815-.648Zm7.494,19.81h-4.463c-.117-1.062-.72-10.131-.869-11.024h1.667a1,1,0,0,0,.982-1.175L179.593,200.1c.065,0,5.554-.015,5.568-.015l-1.94,10.672a1,1,0,0,0,.981,1.176h1.168C185.2,212.817,184.36,221.9,184.215,222.953Zm3.971-13.285c-.229.163-.652.416-1.125.687h-2.167l1.788-9.835a3.056,3.056,0,0,1,1.5,2.624v6.525Z" transform="translate(-141.607 -166.535)" fill="#fff"/>
    <path id="Path_68" data-name="Path 68" d="M31.426,173.658a4.377,4.377,0,1,0-4.377-4.378A4.382,4.382,0,0,0,31.426,173.658Zm0-7.115a2.737,2.737,0,1,1-2.737,2.737A2.741,2.741,0,0,1,31.426,166.544Z" transform="translate(-6.466 -135.877)" fill="#fff"/>
    <path id="Path_69" data-name="Path 69" d="M27.257,280.049H23.479a3.521,3.521,0,0,0-3.516,3.517v4.845c0,.363.08.647,1.575,1.69.082.665.2,2.474.293,3.842.332,5,.332,5,1.167,5H27.06c.816,0,.816,0,1.275-4.976.124-1.343.287-3.11.387-3.8,1.96-1.049,2.051-1.318,2.051-1.752v-4.845A3.521,3.521,0,0,0,27.257,280.049Zm-5.72,8.077v-4.56a1.935,1.935,0,0,1,.152-.752l.966,6.07C22.606,288.864,21.745,288.3,21.538,288.126Zm4.876,9.24H23.662c-.079-.813-.43-6.088-.5-6.824,0,0,.79-.117.965-.322a.955.955,0,0,0,.215-.77L23.1,281.662c.122-.025,4.188-.034,4.2-.033l-1.244,7.822a.952.952,0,0,0,.215.769,1.97,1.97,0,0,0,.817.322C27,291.274,26.515,296.558,26.414,297.366Zm2.785-9.3c-.3.195-1.42.79-1.449.795l1.031-6.482a1.922,1.922,0,0,1,.418,1.189Z" transform="translate(0 -240.949)" fill="#fff"/>
    <g id="Group_43" data-name="Group 43" transform="translate(50.45 29.027)">
      <path id="Path_70" data-name="Path 70" d="M379.926,173.658a4.377,4.377,0,1,0-4.377-4.378A4.382,4.382,0,0,0,379.926,173.658Zm0-7.115a2.737,2.737,0,1,1-2.737,2.737A2.741,2.741,0,0,1,379.926,166.544Z" transform="translate(-374.929 -164.904)" fill="#fff"/>
      <path id="Path_71" data-name="Path 71" d="M375.757,280.049h-3.778a3.521,3.521,0,0,0-3.516,3.517v4.845c0,.363.08.647,1.575,1.69.082.665.2,2.474.293,3.842.332,5,.332,5,1.167,5h4.062c.816,0,.816,0,1.275-4.976.124-1.343.287-3.11.387-3.8,1.96-1.049,2.051-1.318,2.051-1.752v-4.845A3.521,3.521,0,0,0,375.757,280.049Zm-5.72,8.077v-4.56a1.934,1.934,0,0,1,.152-.752l.966,6.07C371.106,288.864,370.245,288.3,370.038,288.126Zm4.876,9.24h-2.752c-.079-.813-.43-6.088-.5-6.824,0,0,.79-.117.965-.322a.954.954,0,0,0,.215-.77l-1.239-7.787c.122-.025,4.156-.038,4.156-.038.016,0,.032,0,.048.005l-1.244,7.822a.952.952,0,0,0,.215.769,1.97,1.97,0,0,0,.817.322C375.5,291.274,375.015,296.558,374.914,297.366Zm2.785-9.3c-.3.195-1.42.79-1.449.795l1.031-6.482a1.922,1.922,0,0,1,.418,1.189Z" transform="translate(-368.463 -269.976)" fill="#fff"/>
    </g>
  </g>
</svg>
