<svg xmlns="http://www.w3.org/2000/svg" width="36.273" height="42" viewBox="0 0 36.273 42">
  <path id="_290109_award_prize_trophy_win_winner_icon" data-name="290109_award_prize_trophy_win_winner_icon" d="M34.591,17.273h0A11.447,11.447,0,0,1,26,28.351v9.922h5.727a.955.955,0,0,1,0,1.909H14.545a.955.955,0,1,1,0-1.909h5.727V28.351a11.447,11.447,0,0,1-8.591-11.078h0A6.682,6.682,0,0,1,5,10.591V8.682a.954.954,0,0,1,.955-.955h5.727V6.773A2.863,2.863,0,0,0,8.818,3.909h0A.955.955,0,1,1,8.818,2H37.455a.955.955,0,0,1,0,1.909h0a2.863,2.863,0,0,0-2.864,2.864h0v.955h5.727a.954.954,0,0,1,.955.955v1.909A6.682,6.682,0,0,1,34.591,17.273Zm-12.409,21h1.909V28.679c-.315.027-.632.049-.955.049s-.64-.022-.955-.049ZM6.909,9.636v.955a4.772,4.772,0,0,0,4.773,4.773V9.636Zm5.706-5.727a4.736,4.736,0,0,1,.976,2.864h0v10.5a9.545,9.545,0,1,0,19.091,0V6.773h0a4.736,4.736,0,0,1,.976-2.864ZM39.364,9.636H34.591v5.727a4.772,4.772,0,0,0,4.773-4.773ZM11.682,42.091H34.591a.955.955,0,0,1,0,1.909H11.682a.955.955,0,0,1,0-1.909Z" transform="translate(-5 -2)" fill="#fff" fill-rule="evenodd"/>
</svg>
