<svg xmlns="http://www.w3.org/2000/svg" width="26.5" height="37" viewBox="0 0 26.5 37">
  <g id="_2305601_checklist_list_plan_stackfolder_strategy_icon" data-name="2305601_checklist_list_plan_stackfolder_strategy_icon" transform="translate(-12 -2.461)">
    <path id="Path_88" data-name="Path 88" d="M20.092,11H15.579A2.579,2.579,0,0,0,13,13.579V38.724A2.579,2.579,0,0,0,15.579,41.3H34.921A2.579,2.579,0,0,0,37.5,38.724V13.579A2.579,2.579,0,0,0,34.921,11H30.408" transform="translate(0 -2.842)" fill="none" stroke="#fff" stroke-linecap="round" stroke-linejoin="round" stroke-width="2"/>
    <ellipse id="Ellipse_14" data-name="Ellipse 14" cx="2" cy="1.5" rx="2" ry="1.5" transform="translate(23 3.461)" fill="none" stroke="#fff" stroke-linecap="round" stroke-linejoin="round" stroke-width="2"/>
    <path id="Path_89" data-name="Path 89" d="M26.224,9h5.158a3.224,3.224,0,0,1,3.224,3.224H23A3.224,3.224,0,0,1,26.224,9Z" transform="translate(-3.553 -2.132)" fill="none" stroke="#fff" stroke-linecap="round" stroke-linejoin="round" stroke-width="2"/>
    <ellipse id="Ellipse_15" data-name="Ellipse 15" cx="1.5" cy="1" rx="1.5" ry="1" transform="translate(18 17.461)" fill="#fff"/>
    <line id="Line_11" data-name="Line 11" x2="8" transform="translate(24 18.461)" fill="none" stroke="#fff" stroke-linecap="round" stroke-linejoin="round" stroke-width="2"/>
    <circle id="Ellipse_16" data-name="Ellipse 16" cx="1.5" cy="1.5" r="1.5" transform="translate(18 21.461)" fill="#fff"/>
    <line id="Line_12" data-name="Line 12" x2="8" transform="translate(24 23.461)" fill="none" stroke="#fff" stroke-linecap="round" stroke-linejoin="round" stroke-width="2"/>
    <ellipse id="Ellipse_17" data-name="Ellipse 17" cx="1.5" cy="1" rx="1.5" ry="1" transform="translate(18 26.461)" fill="#fff"/>
    <line id="Line_13" data-name="Line 13" x2="8" transform="translate(24 27.461)" fill="none" stroke="#fff" stroke-linecap="round" stroke-linejoin="round" stroke-width="2"/>
  </g>
</svg>
