<svg xmlns="http://www.w3.org/2000/svg" width="33.732" height="33.732" viewBox="0 0 33.732 33.732">
  <g id="Group_288" data-name="Group 288" transform="translate(-73.089 -73.089)">
    <path id="Path_157" data-name="Path 157" d="M89.955,73.089a16.866,16.866,0,1,0,16.866,16.867A16.885,16.885,0,0,0,89.955,73.089Zm0,31.072a14.206,14.206,0,1,1,14.206-14.205A14.222,14.222,0,0,1,89.955,104.161Z" fill="#fff"/>
    <g id="Group_287" data-name="Group 287">
      <path id="Path_158" data-name="Path 158" d="M196.92,151.2c0-.821,2.1-.962,3.928-.962a23.572,23.572,0,0,1,6.034,1.042l.385-2.264a24.3,24.3,0,0,0-5.578-.781l.561-2.3H198.5l.562,2.3c-4.841.26-6.419,1.863-6.419,3.205,0,3.386,11.049,2.665,11.049,4.748,0,.782-1.3,1.062-3.578,1.062a14.856,14.856,0,0,1-6.594-1.262l-.6,2.545a24.417,24.417,0,0,0,6.139.8l-.562,2.224h3.754l-.561-2.244c5.683-.281,6.7-2,6.7-3.146C208.39,152.14,196.92,153.141,196.92,151.2Z" transform="translate(-110.56 -63.787)" fill="#fff"/>
    </g>
  </g>
</svg>
