<svg xmlns="http://www.w3.org/2000/svg" width="38" height="38" viewBox="0 0 38 38">
  <g id="_172465_flag_finish_goal_icon" data-name="172465_flag_finish_goal_icon" transform="translate(0 0.029)">
    <rect id="Rectangle_109" data-name="Rectangle 109" width="38" height="38" transform="translate(0 -0.029)" fill="none"/>
    <line id="Line_14" data-name="Line 14" x1="11.559" y1="32.285" transform="translate(2.562 4.106)" fill="none" stroke="#fff" stroke-linecap="round" stroke-linejoin="round" stroke-miterlimit="10" stroke-width="2"/>
    <path id="Path_100" data-name="Path 100" d="M4.448,6.867A17.59,17.59,0,0,1,16.735,2c4.746,0,6.915,3.093,10.832,3.093S35.242,2,35.242,2V22.1a14.4,14.4,0,0,1-6.186,1.547c-3.357,0-4.727-1.547-9.278-1.547-4.316,0-8.373,4.189-8.373,4.189Z" transform="translate(-1.07 -0.481)" fill="none" stroke="#fff" stroke-linecap="round" stroke-linejoin="round" stroke-miterlimit="10" stroke-width="2"/>
    <path id="Path_101" data-name="Path 101" d="M4.448,7.306A14.77,14.77,0,0,1,9.921,3.825l2.4,6.169a18.343,18.343,0,0,0-5.636,3.5L4.528,7.534" transform="translate(-1.07 -0.92)" fill="#fff"/>
    <path id="Path_102" data-name="Path 102" d="M14.819,11.627l2.591,6.652a13.1,13.1,0,0,1,3.44-.724,21.834,21.834,0,0,1,2.793.206l-1.881-7.074a9.456,9.456,0,0,0-1.187-.075A17.721,17.721,0,0,0,14.819,11.627Z" transform="translate(-3.565 -2.553)" fill="#fff"/>
    <path id="Path_103" data-name="Path 103" d="M10.72,24.557l2.195,6.235s3.035-2.91,5.926-3.729l-2.416-6.355A21.407,21.407,0,0,0,10.72,24.557Z" transform="translate(-2.579 -4.982)" fill="#fff"/>
    <path id="Path_104" data-name="Path 104" d="M21.676,2.111,23.413,8.64c1.4,0,5.311,1.914,5.311,1.914l-1.54-6.743A17.127,17.127,0,0,0,21.676,2.111Z" transform="translate(-5.215 -0.508)" fill="#fff"/>
    <path id="Path_105" data-name="Path 105" d="M26.439,20.024l1.788,6.722c.9,0,3.483,1.1,4.606,1.1l-1.51-6.608C29.87,20.859,27.517,20.175,26.439,20.024Z" transform="translate(-6.361 -4.817)" fill="#fff"/>
    <path id="Path_106" data-name="Path 106" d="M30.957,13.231,32.411,19.6a17,17,0,0,0,2.454.269,15.081,15.081,0,0,0,2.243-.226l-.472-5.835a8.011,8.011,0,0,1-2.132.3A8.9,8.9,0,0,1,30.957,13.231Z" transform="translate(-7.448 -3.183)" fill="#fff"/>
    <path id="Path_107" data-name="Path 107" d="M37.762,4.788l.511,6.321a15.45,15.45,0,0,0,4.986-2.57l0-6.539A14.772,14.772,0,0,1,37.762,4.788Z" transform="translate(-9.085 -0.481)" fill="#fff"/>
    <path id="Path_108" data-name="Path 108" d="M39.057,21.136a15.849,15.849,0,0,0,4.512-1.716v6.873a14.47,14.47,0,0,1-4,1.342Z" transform="translate(-9.397 -4.672)" fill="#fff"/>
  </g>
</svg>
