<svg xmlns="http://www.w3.org/2000/svg" width="41.598" height="33.887" viewBox="0 0 41.598 33.887">
  <g id="_4047296_construction_digger_excavate_excavating_excavation_icon" data-name="4047296_construction_digger_excavate_excavating_excavation_icon" transform="translate(-153.644 -217.849)">
    <path id="Path_96" data-name="Path 96" d="M153.644,247.2a4.539,4.539,0,0,0,4.534,4.534h32.531a4.534,4.534,0,0,0,1.143-8.921v-2.384h1.687a.953.953,0,0,0,.953-.953v-5.36a.953.953,0,0,0-.953-.953H181.273a.953.953,0,0,1-.953-.953v-4.267a2.373,2.373,0,0,0-.673-1.656l-.91-.934a2.373,2.373,0,0,0-1.7-.717h-2.059l-10.3-6.6a1.178,1.178,0,0,0-1.34.048l-.792.591a1.178,1.178,0,0,0-.157,1.746l4.305,4.624,2.379.9-5.493,5.354a2.471,2.471,0,0,0-.7,1.306l-.967,5.068a.953.953,0,0,1-.936.774.953.953,0,0,0-.953.953v.076a.953.953,0,0,0,.953.953h3.018v2.238h-5.816A4.539,4.539,0,0,0,153.644,247.2Zm32.462-12.319h4.852a.51.51,0,1,1,0,1.021h-4.852a.51.51,0,1,1,0-1.021Zm0,2.117h4.852a.51.51,0,1,1,0,1.021h-4.852a.51.51,0,1,1,0-1.021Zm-22.744,1.059c.008-.034.017-.068.023-.1l.967-5.068a.965.965,0,0,1,.276-.513l6.145-5.99a.867.867,0,0,1,.608-.247h5.654l.068,0a.227.227,0,0,1,.2.291l-1.65,5.686a5.32,5.32,0,0,1-1.917,2.773l-1.162.871a5.321,5.321,0,0,0-1.3,1.407l-1.049,1.654a.228.228,0,0,1-.193.106h-2.276l1.5-1.5a1.014,1.014,0,0,0,.113.007,1,1,0,1,0-.992-.886L166,238.93H164.25l5.19-5.19.784.784a.621.621,0,1,0,.879-.879l-2.235-2.235a.621.621,0,0,0-.879.879l.572.572Zm-5.185,6.111h32.531a3.032,3.032,0,0,1,0,6.065H158.178a3.032,3.032,0,1,1,0-6.065Z" transform="translate(0 0)" fill="#fff"/>
    <circle id="Ellipse_22" data-name="Ellipse 22" cx="1.795" cy="1.795" r="1.795" transform="matrix(0.122, -0.993, 0.993, 0.122, 156.828, 248.765)" fill="#fff"/>
    <circle id="Ellipse_23" data-name="Ellipse 23" cx="1.795" cy="1.795" r="1.795" transform="translate(161.495 245.408)" fill="#fff"/>
    <circle id="Ellipse_24" data-name="Ellipse 24" cx="1.795" cy="1.795" r="1.795" transform="translate(165.957 245.408)" fill="#fff"/>
    <circle id="Ellipse_25" data-name="Ellipse 25" cx="1.795" cy="1.795" r="1.795" transform="translate(170.418 245.408)" fill="#fff"/>
    <path id="Path_97" data-name="Path 97" d="M509.055,680.357a1.795,1.795,0,1,0-1.795-1.795A1.794,1.794,0,0,0,509.055,680.357Z" transform="translate(-332.381 -431.36)" fill="#fff"/>
    <circle id="Ellipse_26" data-name="Ellipse 26" cx="1.795" cy="1.795" r="1.795" transform="translate(179.34 245.408)" fill="#fff"/>
    <circle id="Ellipse_27" data-name="Ellipse 27" cx="1.795" cy="1.795" r="1.795" transform="translate(183.801 245.408)" fill="#fff"/>
    <path id="Path_98" data-name="Path 98" d="M731.925,680.357a1.795,1.795,0,1,0-1.795-1.795A1.795,1.795,0,0,0,731.925,680.357Z" transform="translate(-541.867 -431.36)" fill="#fff"/>
    <path id="Path_99" data-name="Path 99" d="M202.856,274.388v1.574a1.878,1.878,0,0,0,2.84,1.612l1.184-.707a3.557,3.557,0,0,0-1.457-1.791l-.338-.211-.014-.077a4.866,4.866,0,0,0-.854-1.975l.734-3.816a.752.752,0,0,0,.831-.748.728.728,0,0,0-.011-.129l-.235-1.364a2.1,2.1,0,0,1,.945-2.128l2.788-1.762L207.9,261.4a2.2,2.2,0,0,1-.437-.694l-3.449,3.27a2.1,2.1,0,0,0-.528,2.237l.685,1.884-1.032,4.575A5.367,5.367,0,0,0,202.856,274.388Z" transform="translate(-46.257 -40.279)" fill="#fff"/>
  </g>
</svg>
